<?xml version="1.0" encoding="UTF-8"?>
<svg width="30" height="30" version="1.1" xmlns="http://www.w3.org/2000/svg">
 <path d="m19.269 20.099c0 2.3881-1.9359 4.3248-4.3239 4.3248-2.389 0-4.3248-1.9368-4.3248-4.3248 0-2.3881 1.9359-4.3239 4.3248-4.3239 2.3881 0 4.3239 1.9359 4.3239 4.3239z" fill="none" stroke="currentColor" stroke-miterlimit="10" stroke-width="2"/>
 <path d="m16.975 3.0248c-0.23614 0.04066-0.46258 0.18771-0.63214 0.47237-0.65766 1.1033-1.5722 2.3059-1.9871 3.6385-0.43348-0.48638-0.81421-0.98486-0.67886-1.1362 0.86704-0.96551-0.45304-2.4933-1.3192-1.5288-0.99705 1.1107-0.77272 2.554 0.14567 3.6417 0.85617 1.0145 1.6246 1.483 1.7178 2.9778-0.50802-0.35559-0.9843-0.77979-1.5446-1.0309-0.6567-0.29619-2.5164-0.12914-2.8584-0.89366-0.55153-1.2367-2.1602-0.14516-1.6078 1.0915 0.55898 1.253 1.7488 1.4253 2.8419 1.5831 1.1675 0.16754 2.0123 1.0229 3.0398 1.5639-0.062385 0.50985-0.13388 1.0206-0.1814 1.5128-0.13498 1.3819 1.7301 1.3704 1.8634 0 0.1348-1.3871 0.41254-2.9265 0.29408-4.3598 2.1362 0.082273 4.9698-1.4247 5.7662-3.7789 0.43973-1.2963-1.3635-1.8583-1.7975-0.5745-0.25754 0.75779-1.0468 1.1319-1.6298 1.4618-0.78471 0.4449-1.5195 0.75432-2.3829 0.72451 0.058301-0.64368 0.37161-1.1835 0.68986-1.7267 0.40744-0.69528 0.82356-1.3831 1.2368-2.0746 0.51364-0.86117-0.26726-1.6859-0.97569-1.5639z" stroke-width=".8924"/>
 <circle cx="16.059" cy="19.516" r=".59696" fill-rule="evenodd" stroke="currentColor" stroke-miterlimit="10" stroke-width="1.8061"/>
</svg>
